# xmcd CD database file
#
# Track frame offsets:
#	150
#	44017
#	95837
#	180970
#
# Disc length: 2755 seconds
#
# Revision: 0
# Processed by: cddbd v1.5.2PL0 Copyright (c) Steve Scherf et al.
# Submitted via: CDex 1.51
#
DISCID=2f0ac104
DTITLE=Michael Brecker - Live 2002 Frankfurt 1999 Köln
DYEAR=2002
DGENRE=Jazz
TTITLE0=Michael Brecker - Delta City Blues
TTITLE1=Michael Brecker - Naima
TTITLE2=Michael Brecker Group - Half Past Late
TTITLE3=Michael Brecker Group - ..
EXTD=YEAR: 2002
EXTT0=
EXTT1=
EXTT2=
EXTT3=
PLAYORDER=
